<svg width="35" height="35" viewBox="0 0 35 35" fill="none" xmlns="http://www.w3.org/2000/svg">
<path fill-rule="evenodd" clip-rule="evenodd" d="M17.5 2.91663C11.8562 2.91663 7.29166 7.48121 7.29166 13.125C7.29166 20.7812 17.5 32.0833 17.5 32.0833C17.5 32.0833 27.7083 20.7812 27.7083 13.125C27.7083 7.48121 23.1437 2.91663 17.5 2.91663ZM10.2083 13.1249C10.2083 9.09992 13.475 5.83326 17.5 5.83326C21.525 5.83326 24.7917 9.09992 24.7917 13.1249C24.7917 17.3249 20.5917 23.6103 17.5 27.5333C14.4667 23.6395 10.2083 17.2812 10.2083 13.1249ZM13.8542 13.125C13.8542 11.1114 15.4865 9.47913 17.5 9.47913C18.8025 9.47913 20.0061 10.174 20.6574 11.302C21.3086 12.4301 21.3086 13.8199 20.6574 14.9479C20.0061 16.0759 18.8025 16.7708 17.5 16.7708C15.4865 16.7708 13.8542 15.1385 13.8542 13.125Z" fill="white"/>
<path fill-rule="evenodd" clip-rule="evenodd" d="M17.5 2.91663C11.8562 2.91663 7.29166 7.48121 7.29166 13.125C7.29166 20.7812 17.5 32.0833 17.5 32.0833C17.5 32.0833 27.7083 20.7812 27.7083 13.125C27.7083 7.48121 23.1437 2.91663 17.5 2.91663ZM10.2083 13.1249C10.2083 9.09992 13.475 5.83326 17.5 5.83326C21.525 5.83326 24.7917 9.09992 24.7917 13.1249C24.7917 17.3249 20.5917 23.6103 17.5 27.5333C14.4667 23.6395 10.2083 17.2812 10.2083 13.1249ZM13.8542 13.125C13.8542 11.1114 15.4865 9.47913 17.5 9.47913C18.8025 9.47913 20.0061 10.174 20.6574 11.302C21.3086 12.4301 21.3086 13.8199 20.6574 14.9479C20.0061 16.0759 18.8025 16.7708 17.5 16.7708C15.4865 16.7708 13.8542 15.1385 13.8542 13.125Z" fill="white"/>
<path fill-rule="evenodd" clip-rule="evenodd" d="M17.5 2.91663C11.8562 2.91663 7.29166 7.48121 7.29166 13.125C7.29166 20.7812 17.5 32.0833 17.5 32.0833C17.5 32.0833 27.7083 20.7812 27.7083 13.125C27.7083 7.48121 23.1437 2.91663 17.5 2.91663ZM10.2083 13.1249C10.2083 9.09992 13.475 5.83326 17.5 5.83326C21.525 5.83326 24.7917 9.09992 24.7917 13.1249C24.7917 17.3249 20.5917 23.6103 17.5 27.5333C14.4667 23.6395 10.2083 17.2812 10.2083 13.1249ZM13.8542 13.125C13.8542 11.1114 15.4865 9.47913 17.5 9.47913C18.8025 9.47913 20.0061 10.174 20.6574 11.302C21.3086 12.4301 21.3086 13.8199 20.6574 14.9479C20.0061 16.0759 18.8025 16.7708 17.5 16.7708C15.4865 16.7708 13.8542 15.1385 13.8542 13.125Z" fill="white" fill-opacity="0.51"/>
</svg>
