<svg width="50" height="39" viewBox="0 0 50 39" fill="none" xmlns="http://www.w3.org/2000/svg">
<path d="M19.3595 36.075L16.638 31.854L11.677 34.4694L17.314 18.0609L24.9965 19.6665L19.3595 36.075Z" fill="#ED8F02"/>
<path d="M30.6405 36.075L33.362 31.854L38.323 34.4694L32.686 18.0609L25.0035 19.6665L30.6405 36.075Z" fill="#ED8F02"/>
<path d="M25 5.15697L27.385 2.925L28.769 5.62263L31.9215 4.07472L32.169 6.97359L35.7805 6.26145L34.867 9.07842L38.584 9.27147L36.5995 11.7304L40.058 12.8099L37.1965 14.6702L40.058 16.5305L36.5995 17.6101L38.584 20.069L34.867 20.2621L35.7805 23.0786L32.169 22.3665L31.9215 25.2658L28.769 23.7178L27.385 26.4155L25 24.1835L22.615 26.4155L21.231 23.7178L18.0785 25.2658L17.831 22.3665L14.2195 23.0786L15.133 20.2621L11.416 20.069L13.4005 17.6101L9.942 16.5305L12.8035 14.6702L9.942 12.8099L13.4005 11.7304L11.416 9.27147L15.133 9.07842L14.2195 6.26145L17.831 6.97359L18.0785 4.07472L21.231 5.62263L22.615 2.925L25 5.15697Z" fill="#FC0000"/>
<path d="M25 21.2105C29.6309 21.2105 33.385 18.2823 33.385 14.6702C33.385 11.0581 29.6309 8.12993 25 8.12993C20.3691 8.12993 16.615 11.0581 16.615 14.6702C16.615 18.2823 20.3691 21.2105 25 21.2105Z" fill="#FBC005" stroke="white" stroke-width="2.439" stroke-miterlimit="10"/>
</svg>
